<?xml version="1.0" standalone="no"?>
<!DOCTYPE svg PUBLIC "-//W3C//DTD SVG 20010904//EN"
 "http://www.w3.org/TR/2001/REC-SVG-20010904/DTD/svg10.dtd">
<svg version="1.0" xmlns="http://www.w3.org/2000/svg"
 width="596.000000pt" height="596.000000pt" viewBox="0 0 596.000000 596.000000"
 preserveAspectRatio="xMidYMid meet">
<metadata>
Created by potrace 1.11, written by Peter Selinger 2001-2013
</metadata>
<g transform="translate(0.000000,596.000000) scale(0.100000,-0.100000)"
fill="#000000" stroke="none">
<path d="M2845 4853 c-33 -19 -119 -66 -192 -104 -132 -70 -132 -70 -130 -43
3 44 -19 38 -39 -10 -22 -52 -62 -75 -179 -102 -77 -18 -237 -93 -231 -109 1
-5 10 -9 20 -7 28 5 18 -4 -59 -54 l-76 -49 7 -45 c7 -49 77 -231 127 -327
l31 -61 -24 -51 c-17 -38 -21 -54 -13 -62 8 -8 -5 -44 -50 -129 -48 -91 -59
-121 -50 -131 9 -9 23 11 62 87 27 55 50 97 50 94 1 -5 -42 -122 -86 -235 -11
-27 -18 -58 -16 -67 10 -44 -171 -300 -301 -426 -109 -105 -285 -230 -398
-282 -90 -40 -242 -84 -246 -70 -5 14 -62 13 -62 -2 0 -9 -3 -9 -12 0 -16 16
-28 15 -28 -3 0 -13 -4 -14 -22 -3 -13 7 -27 11 -33 9 -5 -2 -35 -4 -65 -6
-30 -2 -57 -4 -60 -5 -3 -1 -16 -1 -29 0 -19 1 -23 -2 -19 -17 3 -10 -1 -24
-9 -31 -10 -10 -13 -10 -13 3 0 18 -13 19 -41 4 -12 -6 -18 -17 -15 -25 3 -9
-1 -14 -14 -14 -11 0 -64 -12 -117 -26 -54 -14 -134 -33 -178 -41 -78 -15
-124 -41 -110 -63 3 -6 -2 -10 -12 -10 -10 0 -24 -4 -32 -9 -21 -13 4 -54 30
-46 10 3 29 8 40 11 14 4 19 2 15 -4 -12 -20 11 -21 74 -1 84 26 89 17 6 -11
-36 -12 -68 -25 -71 -30 -13 -21 19 -17 101 10 122 42 136 33 25 -14 -84 -35
-112 -56 -76 -56 8 0 59 18 112 39 54 22 90 34 80 28 -72 -46 -172 -107 -180
-110 -6 -2 -7 -9 -3 -15 5 -9 13 -9 29 -1 15 7 12 2 -8 -14 -41 -34 -23 -47
26 -19 22 13 44 20 48 17 8 -5 113 61 166 104 14 11 12 7 -4 -11 -13 -15 -71
-60 -128 -99 -56 -39 -103 -77 -103 -84 0 -7 -7 -18 -15 -25 -11 -9 -13 -16
-6 -23 7 -7 15 -6 25 2 8 7 19 10 24 7 5 -3 30 10 55 29 24 19 47 31 51 28 3
-3 21 6 40 20 30 24 33 24 29 7 -6 -22 6 -26 25 -10 9 7 9 7 2 -2 -5 -7 -10
-20 -10 -31 0 -10 -20 -43 -45 -74 -25 -30 -45 -58 -45 -62 0 -23 18 -18 42
11 20 24 28 29 28 16 0 -29 18 -21 46 22 15 22 28 39 30 37 2 -2 -6 -28 -17
-58 -11 -30 -24 -65 -28 -79 -5 -14 -25 -53 -45 -88 -20 -34 -34 -67 -31 -72
10 -16 22 -3 61 65 19 36 37 65 39 65 2 0 -12 -34 -31 -76 -39 -86 -38 -84
-21 -84 7 0 37 50 67 111 30 61 56 104 58 97 1 -8 -18 -72 -43 -143 -30 -86
-42 -132 -35 -139 9 -9 19 9 43 74 3 8 6 1 6 -17 1 -23 7 -33 23 -39 13 -4 24
-2 26 5 2 6 15 11 28 11 21 0 24 -5 24 -36 0 -46 23 -41 31 7 l6 34 4 -35 c3
-26 9 -35 22 -34 9 1 17 -2 17 -7 0 -5 5 -9 10 -9 6 0 11 28 11 63 l2 62 11
-69 c7 -43 16 -71 25 -74 12 -4 13 6 7 54 -7 58 -6 58 12 38 11 -11 25 -30 31
-42 6 -12 16 -22 21 -22 22 0 19 50 -9 132 -16 47 -27 89 -24 92 3 3 -6 40
-20 83 -47 142 -55 171 -49 177 13 14 10 41 -9 77 -10 21 -19 49 -19 61 0 32
53 139 81 164 42 37 122 87 138 87 9 0 63 31 121 69 116 77 119 81 -67 -92
-75 -70 -98 -100 -75 -100 5 0 37 25 72 55 70 60 103 74 52 22 -18 -18 -32
-36 -32 -40 0 -27 47 13 175 148 82 85 152 155 157 155 5 0 -11 -24 -36 -52
-25 -29 -46 -56 -46 -60 0 -14 23 -9 42 9 16 14 18 15 18 0 0 -9 -5 -19 -10
-22 -11 -7 -4 -25 9 -25 5 0 26 26 49 58 22 31 59 77 82 102 23 25 53 62 67
83 32 46 42 49 15 3 -20 -34 -20 -90 1 -83 5 1 33 47 62 101 29 54 60 105 70
115 15 15 16 14 9 -13 -5 -22 -4 -28 7 -24 8 2 43 73 78 156 36 84 66 150 68
149 1 -2 -11 -43 -27 -92 -18 -54 -26 -93 -21 -98 11 -11 40 45 77 143 21 58
24 51 7 -17 -4 -16 -1 -23 10 -23 10 0 21 26 36 83 54 204 113 435 121 467 40
175 134 431 207 571 l56 106 57 -24 c49 -22 60 -32 88 -83 l32 -58 -5 -343
c-3 -189 -8 -369 -10 -401 -4 -34 -2 -59 5 -63 6 -3 10 -46 10 -100 l0 -93
-66 -42 c-91 -57 -158 -86 -372 -160 -168 -58 -248 -99 -224 -114 5 -3 38 6
73 19 76 30 79 30 46 5 -14 -11 -30 -20 -36 -20 -6 0 -11 -4 -11 -9 0 -5 -12
-14 -27 -19 -34 -12 -115 -91 -107 -103 7 -12 51 -12 59 0 27 44 434 201 561
217 37 4 62 14 76 28 l21 21 -7 -140 c-4 -77 -11 -183 -16 -235 -17 -163 -20
-290 -8 -290 7 0 9 -29 6 -90 -4 -72 -3 -90 8 -90 9 0 14 12 14 35 0 19 5 35
10 35 6 0 10 -1 11 -2 0 -2 4 -52 8 -113 6 -67 15 -122 25 -140 9 -16 16 -46
16 -66 0 -78 12 -129 30 -129 13 0 19 -14 26 -67 6 -41 14 -68 23 -71 11 -4
12 7 7 54 -4 33 -10 68 -13 79 -3 13 -2 16 4 10 6 -5 15 -37 22 -70 18 -87 21
-95 36 -95 19 0 16 40 -11 157 -26 112 -29 139 -12 108 6 -11 16 -24 23 -30
16 -13 55 -102 55 -125 0 -10 4 -20 8 -22 5 -1 32 -59 61 -127 29 -69 60 -131
70 -138 10 -7 24 -26 31 -43 7 -16 19 -30 26 -30 19 0 18 1 -16 77 -40 87 -38
92 8 14 36 -62 62 -87 62 -59 0 7 -7 23 -15 35 -8 12 -11 24 -6 27 4 3 34 -33
65 -79 55 -83 84 -108 73 -63 -6 23 -6 23 9 3 9 -11 22 -28 29 -39 13 -18 41
-14 30 5 -16 25 5 4 35 -36 30 -40 60 -59 60 -37 0 4 -63 87 -141 186 -77 98
-136 177 -130 175 6 -2 74 -62 151 -133 92 -84 145 -125 151 -119 7 7 -11 29
-50 66 -44 40 -56 57 -45 61 8 3 33 -8 56 -24 28 -20 45 -27 52 -20 5 5 8 11
5 13 -2 2 -38 28 -79 57 -41 29 -78 56 -82 60 -4 3 7 5 25 5 17 -1 86 -25 151
-53 116 -50 146 -60 146 -45 0 20 -42 45 -133 80 -64 24 -94 39 -80 41 12 2
127 -22 257 -53 200 -47 239 -54 256 -43 43 27 36 30 -141 68 -146 31 -140 38
11 15 117 -18 133 -18 128 -2 -3 6 -33 17 -69 23 -35 7 -95 20 -134 30 l-70
19 55 5 c32 3 53 9 50 15 -6 12 -104 13 -220 2 -59 -5 -82 -5 -74 3 14 14 185
29 342 30 126 0 160 8 110 27 -13 4 -88 7 -168 6 -93 -2 -137 1 -124 7 12 5
25 13 28 19 13 21 -14 20 -81 -3 -40 -13 -76 -20 -83 -16 -17 10 5 22 126 66
53 19 141 41 197 49 55 9 103 18 106 20 14 15 -20 22 -67 15 -70 -12 -103 0
-43 15 45 11 69 35 34 35 -10 0 -43 -7 -73 -15 -52 -14 -84 -14 -41 0 21 6 30
35 11 35 -6 0 -46 -18 -90 -40 -60 -30 -80 -37 -80 -25 0 22 -10 19 -45 -15
-17 -16 -46 -33 -64 -36 l-34 -7 7 66 c7 57 5 67 -8 67 -9 0 -16 8 -16 19 0
28 -11 52 -21 45 -5 -3 -9 -21 -9 -40 0 -19 -4 -33 -9 -29 -18 11 -20 -12 -4
-73 9 -35 14 -64 12 -66 -2 -2 -85 -15 -184 -28 -134 -19 -184 -22 -194 -14
-8 6 -47 53 -88 104 -59 74 -88 123 -138 235 -63 142 -64 143 -90 331 -21 154
-26 221 -24 365 1 97 6 186 10 197 4 12 19 24 33 28 14 3 26 10 26 15 0 5 15
12 33 16 17 4 46 13 62 21 17 8 61 24 99 37 39 13 72 29 74 35 6 19 -16 14
-172 -38 -81 -27 -146 -44 -144 -38 7 21 160 110 328 191 91 44 167 83 170 88
12 18 91 65 266 155 169 88 208 114 170 114 -10 0 -12 7 -8 22 4 16 2 20 -10
15 -9 -3 -20 -1 -25 4 -7 7 -29 -2 -66 -25 -30 -19 -57 -32 -60 -29 -4 3 -19
-3 -34 -13 -15 -10 -33 -17 -38 -16 -6 1 -42 -26 -80 -59 -74 -64 -141 -106
-302 -190 -54 -29 -118 -65 -143 -81 -31 -20 -3 12 89 101 95 93 131 135 127
147 -5 13 -15 9 -54 -24 -26 -22 -58 -52 -72 -67 -50 -54 -251 -205 -273 -205
-4 0 -6 145 -6 323 0 188 4 314 9 302 5 -11 9 -37 9 -57 1 -28 5 -38 17 -38
14 0 15 9 10 63 -12 125 -18 299 -9 294 4 -3 22 -31 38 -63 17 -32 35 -64 41
-71 7 -7 29 -42 49 -78 33 -59 58 -85 70 -73 2 2 -21 46 -52 98 -31 52 -70
126 -86 164 -26 61 -27 70 -13 78 14 8 14 13 1 43 -7 19 -12 35 -9 35 3 0 89
-38 191 -86 127 -58 189 -82 196 -75 7 7 -33 31 -127 76 -76 36 -141 65 -145
65 -3 0 -35 29 -70 64 -55 56 -67 75 -87 138 -25 78 -30 113 -14 103 14 -9 61
19 101 58 94 93 154 133 240 157 93 26 124 39 115 48 -11 10 -96 12 -122 2
-21 -8 -24 -7 -24 15 0 37 -17 39 -59 6 -60 -48 -62 -37 -3 15 82 72 67 85
-33 27z m-187 -240 c-5 -26 -38 -29 -38 -4 0 15 6 21 21 21 14 0 19 -5 17 -17z
m-98 -23 c0 -5 -2 -10 -4 -10 -3 0 -8 5 -11 10 -3 6 -1 10 4 10 6 0 11 -4 11
-10z m-253 -58 c-10 -10 -17 -23 -17 -29 0 -12 -23 -23 -46 -23 -11 0 -11 5
-3 24 9 19 35 34 78 45 2 1 -3 -7 -12 -17z m197 2 c9 -24 7 -28 -9 -14 -17 14
-20 30 -6 30 5 0 12 -7 15 -16z m56 -152 c19 -50 18 -60 -6 -44 -18 11 -94
141 -94 160 0 31 79 -60 100 -116z m-175 81 c-19 -46 -16 -44 -43 -29 l-23 12
38 27 c21 14 39 26 41 26 1 1 -5 -16 -13 -36z m94 -68 l20 -35 -32 16 c-41 21
-39 18 -31 38 9 24 20 20 43 -19z m-138 7 c14 -6 0 -39 -87 -212 -76 -150
-102 -194 -98 -165 3 22 25 87 49 145 105 259 98 248 136 232z m340 -108 c22
-25 22 -26 3 -16 -12 6 -24 18 -28 27 -8 21 -3 19 25 -11z m834 -674 c-3 -5
-12 -10 -18 -10 -7 0 -6 4 3 10 19 12 23 12 15 0z m-1205 -605 c0 -8 -82 -47
-88 -41 -8 8 -5 10 86 45 1 1 2 -1 2 -4z m-131 -48 c-2 -2 -17 -11 -34 -21
l-30 -17 24 20 c13 12 28 21 34 21 6 0 8 -1 6 -3z m1281 -1167 c-20 -13 -33
-13 -25 0 3 6 14 10 23 10 15 0 15 -2 2 -10z m-170 -35 c-31 -17 -61 -24 -95
-24 l-50 1 85 23 c108 29 115 29 60 0z m-213 -11 c-3 -3 -12 -4 -19 -1 -8 3
-5 6 6 6 11 1 17 -2 13 -5z m53 -44 c31 0 40 -3 30 -9 -15 -9 -108 3 -119 15
-3 4 5 4 19 1 14 -4 45 -7 70 -7z"/>
<path d="M4610 4615 c0 -8 11 -22 24 -30 15 -10 22 -22 19 -34 -3 -13 6 -26
29 -42 18 -13 50 -41 71 -62 35 -35 36 -37 9 -23 -16 8 -38 15 -48 14 -18 0
-52 10 -119 36 -38 15 -157 15 -162 0 -2 -6 23 -21 57 -34 33 -12 60 -24 60
-26 0 -7 -199 6 -230 15 -47 15 -60 14 -60 -4 0 -8 14 -17 38 -21 20 -4 41 -9
46 -12 13 -7 -52 -32 -84 -32 -39 0 -60 -9 -60 -26 0 -11 -18 -14 -75 -14 -43
0 -75 -4 -75 -10 0 -6 35 -10 86 -10 54 0 83 -4 79 -10 -3 -5 -43 -10 -88 -10
-87 0 -127 -7 -127 -21 0 -5 41 -9 92 -9 83 0 91 -2 77 -15 -12 -12 -219 -54
-271 -55 -5 0 -8 -7 -8 -16 0 -13 7 -15 30 -11 16 4 60 9 97 13 61 6 66 5 49
-8 -26 -21 -13 -40 19 -28 19 7 25 6 25 -5 0 -19 -11 -24 -180 -85 -80 -28
-149 -56 -154 -61 -34 -33 65 -12 202 43 115 46 109 44 93 25 -7 -9 -67 -45
-132 -79 -119 -62 -150 -92 -86 -85 33 4 100 35 150 70 16 10 31 17 33 14 13
-13 -21 -48 -111 -117 -79 -60 -95 -77 -91 -94 3 -12 6 -24 6 -28 0 -19 28 -4
86 48 35 31 64 52 64 48 0 -4 -20 -31 -45 -60 -55 -64 -61 -88 -15 -64 32 17
34 -8 6 -61 -19 -38 -22 -51 -12 -55 15 -6 8 -75 -12 -110 -7 -14 -8 -24 -1
-31 6 -6 6 -35 -1 -82 -18 -130 -43 -403 -47 -526 l-5 -121 97 -334 c129 -448
187 -591 276 -677 64 -61 199 -81 304 -44 l55 19 19 -26 c24 -33 39 -22 22 15
l-12 28 19 -24 c25 -31 48 -20 27 13 -18 27 -10 39 16 23 22 -14 36 -3 20 17
-10 12 -9 17 7 25 15 8 24 5 42 -14 13 -14 27 -25 32 -25 15 0 8 27 -12 45
-20 19 -20 19 9 49 36 39 47 61 111 226 81 209 121 340 118 384 -2 22 -7 41
-13 43 -5 1 -29 -66 -52 -150 -49 -173 -105 -294 -171 -368 -35 -39 -47 -47
-58 -38 -8 6 -14 18 -14 25 0 8 -11 19 -25 26 -13 6 -22 15 -19 20 3 5 -16 18
-43 30 -26 11 -59 28 -73 38 -14 9 -41 22 -60 29 -51 16 -167 138 -243 256
-111 173 -127 227 -158 545 -21 222 -21 253 6 495 31 271 92 507 166 635 78
136 107 160 259 214 71 26 165 52 209 58 74 11 88 10 196 -15 137 -32 188 -58
377 -193 73 -52 136 -93 142 -91 15 5 16 38 0 62 -7 11 -50 50 -94 84 -44 35
-80 68 -80 73 0 14 -23 34 -48 42 -17 6 -21 12 -16 32 5 19 2 24 -13 24 -20 0
-58 29 -145 109 -27 24 -51 41 -55 38 -3 -4 -12 -2 -19 4 -8 6 -20 9 -28 6 -9
-4 -47 19 -95 58 -91 74 -148 108 -167 101 -7 -3 -18 2 -24 10 -16 18 -40 18
-40 -1z m-647 -1237 c-1 -18 -5 -50 -9 -70 -4 -26 -3 -38 5 -38 6 0 11 5 11
12 0 6 2 9 5 7 2 -3 -5 -34 -15 -70 -24 -78 -19 -149 11 -149 21 0 22 -6 10
-67 -4 -23 -4 -46 0 -50 4 -4 3 -41 -2 -82 -10 -74 -7 -107 10 -97 5 4 7 -11
4 -34 -4 -28 -2 -40 7 -40 10 0 11 -17 6 -70 -6 -58 -5 -70 7 -70 12 0 17 21
23 88 8 98 18 84 28 -40 4 -39 9 -75 12 -80 3 -5 15 -102 25 -215 11 -113 22
-209 25 -214 15 -25 23 9 18 74 -7 90 8 72 27 -31 7 -40 16 -75 21 -78 4 -3 8
-16 8 -30 0 -13 9 -32 20 -41 11 -10 20 -25 20 -33 0 -9 4 -20 9 -25 16 -17
40 -116 27 -107 -72 44 -107 80 -149 155 -49 89 -123 306 -163 475 -28 125
-54 354 -54 497 0 82 33 399 46 443 6 21 9 13 7 -20z m411 -1488 c8 -19 21
-51 30 -71 l15 -36 -46 8 c-26 5 -47 10 -48 12 -2 1 -9 25 -17 54 -13 42 -13
50 -2 46 8 -3 14 1 14 9 0 30 39 14 54 -22z m276 -77 c0 -13 -22 5 -54 45
l-39 47 46 -45 c26 -24 47 -45 47 -47z m-49 -20 c13 -16 12 -17 -3 -4 -17 13
-22 21 -14 21 2 0 10 -8 17 -17z m-73 -11 c2 -7 -6 -12 -17 -12 -21 0 -27 11
-14 24 9 9 26 2 31 -12z"/>
<path d="M5495 3089 c-33 -11 -72 -17 -87 -15 -14 3 -40 1 -57 -4 -17 -5 -33
-5 -36 0 -6 10 -51 -4 -134 -42 -59 -27 -64 -28 -76 -12 -18 26 -46 11 -43
-23 3 -26 1 -27 -39 -24 -33 2 -43 -1 -43 -12 0 -18 -33 -33 -38 -18 -2 6 -11
11 -19 11 -9 0 -13 -6 -10 -14 4 -11 -6 -17 -36 -24 -23 -6 -67 -17 -97 -25
-39 -11 -57 -12 -62 -4 -5 8 -15 7 -35 -3 -15 -7 -32 -13 -36 -12 -4 1 -27 -9
-51 -23 -23 -14 -49 -25 -57 -25 -22 0 -91 -50 -86 -63 4 -13 75 -11 92 3 6 4
36 16 69 25 71 21 117 14 306 -45 l125 -39 40 -73 c41 -75 44 -86 64 -278 7
-63 17 -116 22 -118 5 -2 9 -25 9 -50 0 -26 5 -65 11 -87 6 -22 13 -55 16 -72
3 -19 11 -33 19 -33 10 0 14 -14 15 -47 2 -66 4 -84 17 -123 6 -19 15 -73 21
-120 22 -196 52 -396 61 -413 6 -9 13 -39 17 -64 3 -26 14 -61 24 -78 9 -16
20 -47 23 -67 7 -39 31 -52 42 -23 10 26 22 16 29 -25 4 -25 12 -40 21 -40 17
0 17 12 3 64 -8 29 -8 41 1 46 13 8 9 30 -31 156 -19 61 -26 103 -23 126 4 25
-1 49 -20 88 -14 30 -26 60 -26 67 0 7 -4 13 -9 13 -8 0 -38 117 -33 132 1 4
-21 121 -48 259 -28 139 -49 256 -47 262 1 5 22 -40 46 -101 26 -69 48 -112
57 -112 18 0 18 0 -5 57 -10 26 -21 68 -25 93 -7 51 -2 47 47 -35 19 -32 32
-44 38 -38 7 7 -16 56 -66 143 -42 74 -73 140 -71 147 3 7 1 25 -4 39 -15 40
0 50 22 15 11 -17 26 -31 34 -31 18 0 18 10 -3 40 -9 14 13 -3 51 -38 37 -34
71 -60 76 -57 15 10 1 27 -86 105 -46 41 -83 81 -84 88 0 8 -18 39 -40 69 -22
31 -39 58 -37 59 2 2 97 -26 211 -61 115 -36 210 -65 212 -65 2 0 4 6 4 14 0
10 -35 26 -105 47 -113 35 -139 51 -34 22 48 -13 64 -14 67 -5 3 9 15 10 38 6
26 -5 34 -3 34 8 0 11 -42 24 -160 48 -88 18 -160 37 -160 42 0 11 -2 11 123
-11 59 -10 110 -14 113 -10 3 5 21 9 40 9 38 0 46 17 12 25 -13 2 -104 14
-203 26 -132 15 -188 26 -210 40 -36 23 -24 24 41 4 64 -19 88 -19 80 0 -5 13
3 14 49 9 45 -6 55 -4 55 8 0 12 -18 17 -77 22 -154 13 -183 18 -183 31 0 10
8 11 37 2 28 -9 37 -9 41 1 2 7 10 12 18 12 8 0 14 7 14 15 0 11 11 15 35 15
20 0 62 9 94 20 32 11 77 22 100 26 40 6 59 19 48 31 -3 3 -48 -2 -100 -11
-111 -19 -107 -19 -107 -7 0 5 17 12 38 16 20 4 51 13 67 20 17 7 42 17 58 22
15 4 27 12 26 16 0 5 13 21 30 36 29 26 32 42 7 40 -6 0 -38 -10 -71 -20z
m-585 -271 c11 -7 8 -8 -10 -4 -14 3 -36 6 -50 6 -20 0 -22 2 -10 10 15 10 43
5 70 -12z m65 1 c11 -17 -1 -21 -15 -4 -8 9 -8 15 -2 15 6 0 14 -5 17 -11z
m270 -99 c3 -5 2 -10 -4 -10 -5 0 -13 5 -16 10 -3 6 -2 10 4 10 5 0 13 -4 16
-10z m172 -96 c-3 -3 -12 -4 -19 -1 -8 3 -5 6 6 6 11 1 17 -2 13 -5z"/>
</g>
</svg>
